<svg width="80" height="80" viewBox="0 0 80 80" fill="none" xmlns="http://www.w3.org/2000/svg">
<rect width="80" height="80" rx="8" fill="#FFFDF5"/>
<path d="M40 16L20 24.8889V38.2222C20 50.5556 28.5333 62.0889 40 64.8889C51.4667 62.0889 60 50.5556 60 38.2222V24.8889L40 16ZM40 24.8889C41.7681 24.8889 43.4638 25.5913 44.714 26.8415C45.9643 28.0918 46.6667 29.7874 46.6667 31.5556C46.6667 33.3237 45.9643 35.0194 44.714 36.2696C43.4638 37.5198 41.7681 38.2222 40 38.2222C38.2319 38.2222 36.5362 37.5198 35.286 36.2696C34.0357 35.0194 33.3333 33.3237 33.3333 31.5556C33.3333 29.7874 34.0357 28.0918 35.286 26.8415C36.5362 25.5913 38.2319 24.8889 40 24.8889M51.4 51.5556C48.7075 55.677 44.6841 58.7515 40 60.2667C35.3159 58.7515 31.2925 55.677 28.6 51.5556C27.8444 50.4444 27.2 49.3333 26.6667 48.1556C26.6667 44.4889 32.6889 41.4889 40 41.4889C47.3111 41.4889 53.3333 44.4222 53.3333 48.1556C52.8 49.3333 52.1556 50.4444 51.4 51.5556Z" fill="#FFD900"/>
</svg>
