<svg width="80" height="80" viewBox="0 0 80 80" fill="none" xmlns="http://www.w3.org/2000/svg">
<rect width="80" height="80" rx="8" fill="#FFFDF5"/>
<path d="M37 58.4C37 58.4 34 58.4 34 55.4C34 52.4 37 43.4 49 43.4C61 43.4 64 52.4 64 55.4C64 58.4 61 58.4 61 58.4H37ZM49 40.4C51.3869 40.4 53.6761 39.4518 55.364 37.764C57.0518 36.0761 58 33.7869 58 31.4C58 29.013 57.0518 26.7239 55.364 25.036C53.6761 23.3482 51.3869 22.4 49 22.4C46.6131 22.4 44.3239 23.3482 42.636 25.036C40.9482 26.7239 40 29.013 40 31.4C40 33.7869 40.9482 36.0761 42.636 37.764C44.3239 39.4518 46.6131 40.4 49 40.4Z" fill="#FFD900"/>
<path fill-rule="evenodd" clip-rule="evenodd" d="M31.648 58.4001C31.2033 57.4635 30.9815 56.4367 31 55.4001C31 51.3351 33.04 47.1501 36.808 44.2401C34.9273 43.6606 32.9678 43.3772 31 43.4001C19 43.4001 16 52.4001 16 55.4001C16 58.4001 19 58.4001 19 58.4001H31.648Z" fill="#FFD900"/>
<path d="M29.5 40.4C31.4891 40.4 33.3968 39.6098 34.8033 38.2033C36.2098 36.7968 37 34.8891 37 32.9C37 30.9109 36.2098 29.0032 34.8033 27.5967C33.3968 26.1902 31.4891 25.4 29.5 25.4C27.5109 25.4 25.6032 26.1902 24.1967 27.5967C22.7902 29.0032 22 30.9109 22 32.9C22 34.8891 22.7902 36.7968 24.1967 38.2033C25.6032 39.6098 27.5109 40.4 29.5 40.4Z" fill="#FFD900"/>
</svg>
