<svg width="80" height="80" viewBox="0 0 80 80" fill="none" xmlns="http://www.w3.org/2000/svg">
<rect width="80" height="80" rx="8" fill="#FFFDF5"/>
<path d="M38 33C38 37.42 34.42 41 30 41C25.58 41 22 37.42 22 33C22 28.58 25.58 25 30 25C34.42 25 38 28.58 38 33ZM38 46.44V57H16V53C16 48.58 22.26 45 30 45C33 45 35.74 45.54 38 46.44ZM64 57H42V23H64V57ZM48 40C48 38.6739 48.5268 37.4021 49.4645 36.4645C50.4021 35.5268 51.6739 35 53 35C54.3261 35 55.5979 35.5268 56.5355 36.4645C57.4732 37.4021 58 38.6739 58 40C58 41.3261 57.4732 42.5979 56.5355 43.5355C55.5979 44.4732 54.3261 45 53 45C51.6739 45 50.4021 44.4732 49.4645 43.5355C48.5268 42.5979 48 41.3261 48 40ZM60 31C58.9391 31 57.9217 30.5786 57.1716 29.8284C56.4214 29.0783 56 28.0609 56 27H50C50 29.22 48.22 31 46 31V49C47.0609 49 48.0783 49.4214 48.8284 50.1716C49.5786 50.9217 50 51.9391 50 53H56C56 50.8 57.8 49 60 49V31Z" fill="#FFD900"/>
</svg>
